<svg width="40" height="40" viewBox="0 0 40 40" fill="none" xmlns="http://www.w3.org/2000/svg">
<rect x="0.5" y="0.5" width="39" height="39" rx="19.5" fill="url(#paint0_linear_3311_1690)"/>
<rect x="0.5" y="0.5" width="39" height="39" rx="19.5" stroke="url(#paint1_linear_3311_1690)"/>
<path opacity="0.6" d="M21.666 23.3333C21.666 24.8083 21.0243 26.1416 19.9993 27.05C19.116 27.85 17.9493 28.3333 16.666 28.3333C13.9077 28.3333 11.666 26.0916 11.666 23.3333C11.666 21.0333 13.2327 19.0833 15.3493 18.5083C15.9243 19.9583 17.1577 21.075 18.6827 21.4916C19.0993 21.6083 19.541 21.6666 19.9993 21.6666C20.4577 21.6666 20.8993 21.6083 21.316 21.4916C21.541 22.0583 21.666 22.6833 21.666 23.3333Z" fill="white"/>
<path d="M25 16.6665C25 17.3165 24.875 17.9415 24.65 18.5082C24.075 19.9582 22.8417 21.0748 21.3167 21.4915C20.9 21.6082 20.4583 21.6665 20 21.6665C19.5417 21.6665 19.1 21.6082 18.6833 21.4915C17.1583 21.0748 15.925 19.9582 15.35 18.5082C15.125 17.9415 15 17.3165 15 16.6665C15 13.9082 17.2417 11.6665 20 11.6665C22.7583 11.6665 25 13.9082 25 16.6665Z" fill="white"/>
<path opacity="0.4" d="M28.3333 23.3333C28.3333 26.0916 26.0917 28.3333 23.3333 28.3333C22.05 28.3333 20.8833 27.85 20 27.05C21.025 26.1416 21.6667 24.8083 21.6667 23.3333C21.6667 22.6833 21.5417 22.0583 21.3167 21.4916C22.8417 21.075 24.075 19.9583 24.65 18.5083C26.7667 19.0833 28.3333 21.0333 28.3333 23.3333Z" fill="white"/>
<defs>
<linearGradient id="paint0_linear_3311_1690" x1="20" y1="0" x2="20" y2="40" gradientUnits="userSpaceOnUse">
<stop/>
<stop offset="1" stop-color="#3D3D3D"/>
</linearGradient>
<linearGradient id="paint1_linear_3311_1690" x1="20" y1="0" x2="20" y2="40" gradientUnits="userSpaceOnUse">
<stop stop-color="white" stop-opacity="0"/>
<stop offset="1" stop-color="white" stop-opacity="0.24"/>
</linearGradient>
</defs>
</svg>
