<svg width="45" height="37" viewBox="0 0 45 37" fill="none" xmlns="http://www.w3.org/2000/svg">
<path fill-rule="evenodd" clip-rule="evenodd" d="M16.0309 0.331093C6.50946 6.44587 1.21988 13.563 0.162149 21.6824C-1.4845 34.3224 9.8192 40.5094 15.5467 34.9504C21.2741 29.3915 17.8409 22.3357 13.6936 20.407C9.54634 18.4782 7.01015 19.15 7.45255 16.5726C7.89495 13.9953 13.7953 6.84933 18.9789 3.52139C19.3228 3.22894 19.4537 2.66149 19.1225 2.23097C18.9047 1.94788 18.4775 1.39263 17.8409 0.56519C17.2842 -0.15837 16.7508 -0.131286 16.0309 0.331093Z" fill="#D63484"/>
<path fill-rule="evenodd" clip-rule="evenodd" d="M41.0973 0.331093C31.5759 6.44587 26.2863 13.563 25.2285 21.6824C23.582 34.3224 34.8857 40.5094 40.6131 34.9504C46.3406 29.3915 42.9073 22.3357 38.7601 20.407C34.6128 18.4782 32.0765 19.15 32.519 16.5726C32.9614 13.9953 38.8617 6.84933 44.0454 3.52139C44.3893 3.22894 44.5202 2.66149 44.1889 2.23097C43.9712 1.94788 43.5439 1.39263 42.9073 0.56519C42.3506 -0.15837 41.8173 -0.131286 41.0973 0.331093Z" fill="#D63484"/>
</svg>
